<svg width="3em" height="3em" viewBox="0 0 256 256" fill="#FFFFFF" xmlns="http://www.w3.org/2000/svg">
<mask id="path-1-inside-1_114_625" fill="#FFFFFF">
<path d="M81.1232 176.276C81.1232 187.295 88.2983 196.311 97.1123 196.311C99.0415 196.268 100.942 195.832 102.697 195.029C104.453 194.226 106.028 193.074 107.325 191.643C108.041 190.843 108.91 190.195 109.88 189.739C110.85 189.282 111.902 189.026 112.973 188.985C114.044 188.944 115.113 189.12 116.115 189.501C117.117 189.882 118.032 190.462 118.806 191.205C119.581 191.948 120.198 192.84 120.621 193.827C121.045 194.814 121.266 195.876 121.272 196.951C121.277 198.025 121.068 199.09 120.655 200.081C120.241 201.073 119.634 201.971 118.868 202.722C116.087 205.728 112.723 208.131 108.982 209.785C105.24 211.439 101.201 212.308 97.1123 212.339C79.4744 212.339 65.1341 196.161 65.1341 176.276C65.1341 156.391 79.4744 140.212 97.1123 140.212C101.201 140.243 105.24 141.112 108.982 142.766C112.723 144.42 116.087 146.824 118.868 149.829C119.634 150.58 120.241 151.479 120.655 152.47C121.068 153.462 121.277 154.526 121.272 155.601C121.266 156.675 121.045 157.738 120.621 158.725C120.198 159.712 119.581 160.603 118.806 161.346C118.032 162.09 117.117 162.669 116.115 163.05C115.113 163.432 114.044 163.607 112.973 163.566C111.902 163.526 110.85 163.269 109.88 162.813C108.91 162.356 108.041 161.709 107.325 160.909C106.028 159.477 104.453 158.325 102.697 157.522C100.942 156.72 99.0415 156.284 97.1123 156.24C88.2983 156.24 81.1232 165.256 81.1232 176.276ZM160.669 167.57C156.672 166.408 152.535 165.216 150.226 163.724C148.967 162.912 148.997 162.722 149.107 161.82C149.122 161.092 149.311 160.377 149.659 159.738C150.007 159.098 150.503 158.551 151.106 158.144C155.702 155.018 166.435 156.411 170.922 157.583C172.973 158.123 175.155 157.825 176.987 156.753C178.819 155.681 180.151 153.924 180.69 151.868C181.23 149.811 180.932 147.624 179.863 145.788C178.794 143.951 177.041 142.616 174.989 142.075C172.871 141.524 154.004 136.846 142.182 144.84C139.678 146.522 137.575 148.736 136.02 151.324C134.466 153.912 133.499 156.812 133.188 159.817C131.189 175.725 146.819 180.263 156.172 182.967C168.234 186.464 169.293 187.896 168.943 190.571C168.634 192.985 167.684 193.917 166.805 194.508C162.208 197.573 151.645 196.071 147.268 194.868C145.236 194.328 143.073 194.612 141.248 195.659C139.423 196.705 138.083 198.431 137.518 200.461C136.953 202.491 137.208 204.662 138.229 206.505C139.25 208.348 140.953 209.713 142.971 210.306C147.924 211.607 153.021 212.28 158.141 212.309C163.967 212.309 170.432 211.307 175.619 207.841C178.179 206.136 180.33 203.884 181.918 201.246C183.506 198.608 184.491 195.65 184.803 192.584C187.051 175.274 170.542 170.435 160.669 167.57ZM224.626 167.57C220.628 166.408 216.491 165.216 214.183 163.724C212.933 162.912 212.953 162.722 213.063 161.82C213.078 161.092 213.268 160.377 213.616 159.738C213.963 159.098 214.459 158.551 215.062 158.144C219.659 155.018 230.392 156.411 234.869 157.583C236.92 158.123 239.102 157.825 240.933 156.753C242.765 155.681 244.098 153.924 244.637 151.868C245.176 149.811 244.879 147.624 243.809 145.788C242.74 143.951 240.987 142.616 238.936 142.075C236.827 141.524 217.95 136.846 206.128 144.84C203.635 146.529 201.542 148.745 199.997 151.333C198.452 153.92 197.491 156.816 197.184 159.817C195.186 175.725 210.825 180.263 220.169 182.967C232.22 186.464 233.28 187.896 232.94 190.571C232.63 192.985 231.681 193.917 230.791 194.508C226.194 197.573 215.642 196.071 211.265 194.868C209.219 194.297 207.03 194.564 205.18 195.611C203.33 196.657 201.971 198.397 201.401 200.448C200.831 202.499 201.098 204.693 202.142 206.548C203.186 208.402 204.921 209.765 206.968 210.336C211.924 211.637 217.024 212.31 222.147 212.339C227.963 212.339 234.439 211.338 239.625 207.871C242.184 206.166 244.333 203.913 245.92 201.275C247.506 198.637 248.489 195.679 248.799 192.614C251.008 175.274 234.499 170.435 224.616 167.57H224.626ZM6.17432 108.156V36.0283C6.17432 31.7773 7.85888 27.7005 10.8574 24.6946C13.856 21.6887 17.9228 20 22.1634 20H118.098C119.148 19.9992 120.188 20.2058 121.159 20.608C122.129 21.0102 123.011 21.6002 123.754 22.3441L179.716 78.4431C180.458 79.1879 181.047 80.072 181.448 81.0449C181.849 82.0178 182.055 83.0604 182.055 84.1131V108.156C182.055 110.281 181.212 112.319 179.713 113.822C178.214 115.325 176.18 116.17 174.06 116.17C171.94 116.17 169.906 115.325 168.407 113.822C166.908 112.319 166.065 110.281 166.065 108.156V92.1272H118.098C115.978 92.1272 113.944 91.2829 112.445 89.7799C110.946 88.277 110.103 86.2386 110.103 84.1131V36.0283H22.1634V108.156C22.1634 110.281 21.3211 112.319 19.8219 113.822C18.3226 115.325 16.2892 116.17 14.1689 116.17C12.0486 116.17 10.0151 115.325 8.51587 113.822C7.0166 112.319 6.17432 110.281 6.17432 108.156ZM126.093 76.099H154.753L126.093 47.3583V76.099Z"/>
<path d="M33.5047 168.217L33.6559 168.261C43.5292 171.126 60.038 175.965 57.7895 193.275C57.4779 196.34 56.4927 199.298 54.9048 201.936C53.3169 204.574 51.1656 206.827 48.6057 208.532C43.4193 211.998 36.9537 213 31.1277 213C26.0074 212.971 20.911 212.298 15.958 210.996C13.9402 210.404 12.2364 209.039 11.2157 207.196C10.195 205.353 9.93954 203.182 10.5047 201.151C11.0698 199.121 12.4099 197.396 14.2349 196.349C16.0599 195.303 18.2228 195.019 20.2551 195.559C24.6321 196.761 35.1949 198.264 39.7917 195.199C40.6711 194.608 41.6205 193.676 41.9303 191.262C42.2801 188.587 41.2208 187.154 29.159 183.658C19.8054 180.953 4.17601 176.415 6.17464 160.507C6.48571 157.502 7.45274 154.603 9.00708 152.015C10.5614 149.426 12.665 147.213 15.1685 145.531C26.9905 137.537 45.8576 142.215 47.9762 142.766C50.0275 143.307 51.7807 144.642 52.8498 146.479C53.919 148.315 54.2166 150.502 53.6773 152.558C53.1379 154.615 51.8058 156.372 49.9739 157.444C48.1419 158.516 45.9603 158.814 43.9089 158.273C39.422 157.101 28.6893 155.709 24.0924 158.834C23.4899 159.242 22.9938 159.789 22.646 160.428C22.2982 161.068 22.1088 161.782 22.0938 162.511L22.0922 162.524C21.9836 163.414 21.9601 163.607 23.213 164.414C25.4924 165.888 29.5547 167.069 33.5047 168.217Z"/>
</mask>
<path d="M81.1232 176.276C81.1232 187.295 88.2983 196.311 97.1123 196.311C99.0415 196.268 100.942 195.832 102.697 195.029C104.453 194.226 106.028 193.074 107.325 191.643C108.041 190.843 108.91 190.195 109.88 189.739C110.85 189.282 111.902 189.026 112.973 188.985C114.044 188.944 115.113 189.12 116.115 189.501C117.117 189.882 118.032 190.462 118.806 191.205C119.581 191.948 120.198 192.84 120.621 193.827C121.045 194.814 121.266 195.876 121.272 196.951C121.277 198.025 121.068 199.09 120.655 200.081C120.241 201.073 119.634 201.971 118.868 202.722C116.087 205.728 112.723 208.131 108.982 209.785C105.24 211.439 101.201 212.308 97.1123 212.339C79.4744 212.339 65.1341 196.161 65.1341 176.276C65.1341 156.391 79.4744 140.212 97.1123 140.212C101.201 140.243 105.24 141.112 108.982 142.766C112.723 144.42 116.087 146.824 118.868 149.829C119.634 150.58 120.241 151.479 120.655 152.47C121.068 153.462 121.277 154.526 121.272 155.601C121.266 156.675 121.045 157.738 120.621 158.725C120.198 159.712 119.581 160.603 118.806 161.346C118.032 162.09 117.117 162.669 116.115 163.05C115.113 163.432 114.044 163.607 112.973 163.566C111.902 163.526 110.85 163.269 109.88 162.813C108.91 162.356 108.041 161.709 107.325 160.909C106.028 159.477 104.453 158.325 102.697 157.522C100.942 156.72 99.0415 156.284 97.1123 156.24C88.2983 156.24 81.1232 165.256 81.1232 176.276ZM160.669 167.57C156.672 166.408 152.535 165.216 150.226 163.724C148.967 162.912 148.997 162.722 149.107 161.82C149.122 161.092 149.311 160.377 149.659 159.738C150.007 159.098 150.503 158.551 151.106 158.144C155.702 155.018 166.435 156.411 170.922 157.583C172.973 158.123 175.155 157.825 176.987 156.753C178.819 155.681 180.151 153.924 180.69 151.868C181.23 149.811 180.932 147.624 179.863 145.788C178.794 143.951 177.041 142.616 174.989 142.075C172.871 141.524 154.004 136.846 142.182 144.84C139.678 146.522 137.575 148.736 136.02 151.324C134.466 153.912 133.499 156.812 133.188 159.817C131.189 175.725 146.819 180.263 156.172 182.967C168.234 186.464 169.293 187.896 168.943 190.571C168.634 192.985 167.684 193.917 166.805 194.508C162.208 197.573 151.645 196.071 147.268 194.868C145.236 194.328 143.073 194.612 141.248 195.659C139.423 196.705 138.083 198.431 137.518 200.461C136.953 202.491 137.208 204.662 138.229 206.505C139.25 208.348 140.953 209.713 142.971 210.306C147.924 211.607 153.021 212.28 158.141 212.309C163.967 212.309 170.432 211.307 175.619 207.841C178.179 206.136 180.33 203.884 181.918 201.246C183.506 198.608 184.491 195.65 184.803 192.584C187.051 175.274 170.542 170.435 160.669 167.57ZM224.626 167.57C220.628 166.408 216.491 165.216 214.183 163.724C212.933 162.912 212.953 162.722 213.063 161.82C213.078 161.092 213.268 160.377 213.616 159.738C213.963 159.098 214.459 158.551 215.062 158.144C219.659 155.018 230.392 156.411 234.869 157.583C236.92 158.123 239.102 157.825 240.933 156.753C242.765 155.681 244.098 153.924 244.637 151.868C245.176 149.811 244.879 147.624 243.809 145.788C242.74 143.951 240.987 142.616 238.936 142.075C236.827 141.524 217.95 136.846 206.128 144.84C203.635 146.529 201.542 148.745 199.997 151.333C198.452 153.92 197.491 156.816 197.184 159.817C195.186 175.725 210.825 180.263 220.169 182.967C232.22 186.464 233.28 187.896 232.94 190.571C232.63 192.985 231.681 193.917 230.791 194.508C226.194 197.573 215.642 196.071 211.265 194.868C209.219 194.297 207.03 194.564 205.18 195.611C203.33 196.657 201.971 198.397 201.401 200.448C200.831 202.499 201.098 204.693 202.142 206.548C203.186 208.402 204.921 209.765 206.968 210.336C211.924 211.637 217.024 212.31 222.147 212.339C227.963 212.339 234.439 211.338 239.625 207.871C242.184 206.166 244.333 203.913 245.92 201.275C247.506 198.637 248.489 195.679 248.799 192.614C251.008 175.274 234.499 170.435 224.616 167.57H224.626ZM6.17432 108.156V36.0283C6.17432 31.7773 7.85888 27.7005 10.8574 24.6946C13.856 21.6887 17.9228 20 22.1634 20H118.098C119.148 19.9992 120.188 20.2058 121.159 20.608C122.129 21.0102 123.011 21.6002 123.754 22.3441L179.716 78.4431C180.458 79.1879 181.047 80.072 181.448 81.0449C181.849 82.0178 182.055 83.0604 182.055 84.1131V108.156C182.055 110.281 181.212 112.319 179.713 113.822C178.214 115.325 176.18 116.17 174.06 116.17C171.94 116.17 169.906 115.325 168.407 113.822C166.908 112.319 166.065 110.281 166.065 108.156V92.1272H118.098C115.978 92.1272 113.944 91.2829 112.445 89.7799C110.946 88.277 110.103 86.2386 110.103 84.1131V36.0283H22.1634V108.156C22.1634 110.281 21.3211 112.319 19.8219 113.822C18.3226 115.325 16.2892 116.17 14.1689 116.17C12.0486 116.17 10.0151 115.325 8.51587 113.822C7.0166 112.319 6.17432 110.281 6.17432 108.156ZM126.093 76.099H154.753L126.093 47.3583V76.099Z" fill="black"/>
<path d="M33.5047 168.217L33.6559 168.261C43.5292 171.126 60.038 175.965 57.7895 193.275C57.4779 196.34 56.4927 199.298 54.9048 201.936C53.3169 204.574 51.1656 206.827 48.6057 208.532C43.4193 211.998 36.9537 213 31.1277 213C26.0074 212.971 20.911 212.298 15.958 210.996C13.9402 210.404 12.2364 209.039 11.2157 207.196C10.195 205.353 9.93954 203.182 10.5047 201.151C11.0698 199.121 12.4099 197.396 14.2349 196.349C16.0599 195.303 18.2228 195.019 20.2551 195.559C24.6321 196.761 35.1949 198.264 39.7917 195.199C40.6711 194.608 41.6205 193.676 41.9303 191.262C42.2801 188.587 41.2208 187.154 29.159 183.658C19.8054 180.953 4.17601 176.415 6.17464 160.507C6.48571 157.502 7.45274 154.603 9.00708 152.015C10.5614 149.426 12.665 147.213 15.1685 145.531C26.9905 137.537 45.8576 142.215 47.9762 142.766C50.0275 143.307 51.7807 144.642 52.8498 146.479C53.919 148.315 54.2166 150.502 53.6773 152.558C53.1379 154.615 51.8058 156.372 49.9739 157.444C48.1419 158.516 45.9603 158.814 43.9089 158.273C39.422 157.101 28.6893 155.709 24.0924 158.834C23.4899 159.242 22.9938 159.789 22.646 160.428C22.2982 161.068 22.1088 161.782 22.0938 162.511L22.0922 162.524C21.9836 163.414 21.9601 163.607 23.213 164.414C25.4924 165.888 29.5547 167.069 33.5047 168.217Z" fill="black"/>
<path d="M81.1232 176.276C81.1232 187.295 88.2983 196.311 97.1123 196.311C99.0415 196.268 100.942 195.832 102.697 195.029C104.453 194.226 106.028 193.074 107.325 191.643C108.041 190.843 108.91 190.195 109.88 189.739C110.85 189.282 111.902 189.026 112.973 188.985C114.044 188.944 115.113 189.12 116.115 189.501C117.117 189.882 118.032 190.462 118.806 191.205C119.581 191.948 120.198 192.84 120.621 193.827C121.045 194.814 121.266 195.876 121.272 196.951C121.277 198.025 121.068 199.09 120.655 200.081C120.241 201.073 119.634 201.971 118.868 202.722C116.087 205.728 112.723 208.131 108.982 209.785C105.24 211.439 101.201 212.308 97.1123 212.339C79.4744 212.339 65.1341 196.161 65.1341 176.276C65.1341 156.391 79.4744 140.212 97.1123 140.212C101.201 140.243 105.24 141.112 108.982 142.766C112.723 144.42 116.087 146.824 118.868 149.829C119.634 150.58 120.241 151.479 120.655 152.47C121.068 153.462 121.277 154.526 121.272 155.601C121.266 156.675 121.045 157.738 120.621 158.725C120.198 159.712 119.581 160.603 118.806 161.346C118.032 162.09 117.117 162.669 116.115 163.05C115.113 163.432 114.044 163.607 112.973 163.566C111.902 163.526 110.85 163.269 109.88 162.813C108.91 162.356 108.041 161.709 107.325 160.909C106.028 159.477 104.453 158.325 102.697 157.522C100.942 156.72 99.0415 156.284 97.1123 156.24C88.2983 156.24 81.1232 165.256 81.1232 176.276ZM160.669 167.57C156.672 166.408 152.535 165.216 150.226 163.724C148.967 162.912 148.997 162.722 149.107 161.82C149.122 161.092 149.311 160.377 149.659 159.738C150.007 159.098 150.503 158.551 151.106 158.144C155.702 155.018 166.435 156.411 170.922 157.583C172.973 158.123 175.155 157.825 176.987 156.753C178.819 155.681 180.151 153.924 180.69 151.868C181.23 149.811 180.932 147.624 179.863 145.788C178.794 143.951 177.041 142.616 174.989 142.075C172.871 141.524 154.004 136.846 142.182 144.84C139.678 146.522 137.575 148.736 136.02 151.324C134.466 153.912 133.499 156.812 133.188 159.817C131.189 175.725 146.819 180.263 156.172 182.967C168.234 186.464 169.293 187.896 168.943 190.571C168.634 192.985 167.684 193.917 166.805 194.508C162.208 197.573 151.645 196.071 147.268 194.868C145.236 194.328 143.073 194.612 141.248 195.659C139.423 196.705 138.083 198.431 137.518 200.461C136.953 202.491 137.208 204.662 138.229 206.505C139.25 208.348 140.953 209.713 142.971 210.306C147.924 211.607 153.021 212.28 158.141 212.309C163.967 212.309 170.432 211.307 175.619 207.841C178.179 206.136 180.33 203.884 181.918 201.246C183.506 198.608 184.491 195.65 184.803 192.584C187.051 175.274 170.542 170.435 160.669 167.57ZM224.626 167.57C220.628 166.408 216.491 165.216 214.183 163.724C212.933 162.912 212.953 162.722 213.063 161.82C213.078 161.092 213.268 160.377 213.616 159.738C213.963 159.098 214.459 158.551 215.062 158.144C219.659 155.018 230.392 156.411 234.869 157.583C236.92 158.123 239.102 157.825 240.933 156.753C242.765 155.681 244.098 153.924 244.637 151.868C245.176 149.811 244.879 147.624 243.809 145.788C242.74 143.951 240.987 142.616 238.936 142.075C236.827 141.524 217.95 136.846 206.128 144.84C203.635 146.529 201.542 148.745 199.997 151.333C198.452 153.92 197.491 156.816 197.184 159.817C195.186 175.725 210.825 180.263 220.169 182.967C232.22 186.464 233.28 187.896 232.94 190.571C232.63 192.985 231.681 193.917 230.791 194.508C226.194 197.573 215.642 196.071 211.265 194.868C209.219 194.297 207.03 194.564 205.18 195.611C203.33 196.657 201.971 198.397 201.401 200.448C200.831 202.499 201.098 204.693 202.142 206.548C203.186 208.402 204.921 209.765 206.968 210.336C211.924 211.637 217.024 212.31 222.147 212.339C227.963 212.339 234.439 211.338 239.625 207.871C242.184 206.166 244.333 203.913 245.92 201.275C247.506 198.637 248.489 195.679 248.799 192.614C251.008 175.274 234.499 170.435 224.616 167.57H224.626ZM6.17432 108.156V36.0283C6.17432 31.7773 7.85888 27.7005 10.8574 24.6946C13.856 21.6887 17.9228 20 22.1634 20H118.098C119.148 19.9992 120.188 20.2058 121.159 20.608C122.129 21.0102 123.011 21.6002 123.754 22.3441L179.716 78.4431C180.458 79.1879 181.047 80.072 181.448 81.0449C181.849 82.0178 182.055 83.0604 182.055 84.1131V108.156C182.055 110.281 181.212 112.319 179.713 113.822C178.214 115.325 176.18 116.17 174.06 116.17C171.94 116.17 169.906 115.325 168.407 113.822C166.908 112.319 166.065 110.281 166.065 108.156V92.1272H118.098C115.978 92.1272 113.944 91.2829 112.445 89.7799C110.946 88.277 110.103 86.2386 110.103 84.1131V36.0283H22.1634V108.156C22.1634 110.281 21.3211 112.319 19.8219 113.822C18.3226 115.325 16.2892 116.17 14.1689 116.17C12.0486 116.17 10.0151 115.325 8.51587 113.822C7.0166 112.319 6.17432 110.281 6.17432 108.156ZM126.093 76.099H154.753L126.093 47.3583V76.099Z" stroke="black" stroke-width="2" mask="url(#path-1-inside-1_114_625)"/>
<path d="M33.5047 168.217L33.6559 168.261C43.5292 171.126 60.038 175.965 57.7895 193.275C57.4779 196.34 56.4927 199.298 54.9048 201.936C53.3169 204.574 51.1656 206.827 48.6057 208.532C43.4193 211.998 36.9537 213 31.1277 213C26.0074 212.971 20.911 212.298 15.958 210.996C13.9402 210.404 12.2364 209.039 11.2157 207.196C10.195 205.353 9.93954 203.182 10.5047 201.151C11.0698 199.121 12.4099 197.396 14.2349 196.349C16.0599 195.303 18.2228 195.019 20.2551 195.559C24.6321 196.761 35.1949 198.264 39.7917 195.199C40.6711 194.608 41.6205 193.676 41.9303 191.262C42.2801 188.587 41.2208 187.154 29.159 183.658C19.8054 180.953 4.17601 176.415 6.17464 160.507C6.48571 157.502 7.45274 154.603 9.00708 152.015C10.5614 149.426 12.665 147.213 15.1685 145.531C26.9905 137.537 45.8576 142.215 47.9762 142.766C50.0275 143.307 51.7807 144.642 52.8498 146.479C53.919 148.315 54.2166 150.502 53.6773 152.558C53.1379 154.615 51.8058 156.372 49.9739 157.444C48.1419 158.516 45.9603 158.814 43.9089 158.273C39.422 157.101 28.6893 155.709 24.0924 158.834C23.4899 159.242 22.9938 159.789 22.646 160.428C22.2982 161.068 22.1088 161.782 22.0938 162.511L22.0922 162.524C21.9836 163.414 21.9601 163.607 23.213 164.414C25.4924 165.888 29.5547 167.069 33.5047 168.217Z" stroke="black" stroke-width="2" mask="url(#path-1-inside-1_114_625)"/>
</svg>
