<?xml version="1.0" standalone="no"?>
<!DOCTYPE svg PUBLIC "-//W3C//DTD SVG 1.0//EN" "http://www.w3.org/TR/2001/REC-SVG-20010904/DTD/svg10.dtd">
<svg xmlns="http://www.w3.org/2000/svg" xmlns:xlink="http://www.w3.org/1999/xlink" id="body_1" width="38" height="38">

<g transform="matrix(0.14645188 0 0 0.14645188 -19.917456 -11.431766)">
    <path d="M254.2 123L254.2 278.66998" stroke="none" fill="#FFFFFF" fill-rule="nonzero" />
    <path d="M244.2 123L244.2 278.66998C 244.2 291.53998 264.2 291.56 264.2 278.66998L264.2 278.66998L264.2 122.999985C 264.2 110.12998 244.20001 110.109985 244.20001 122.999985L244.20001 122.999985L244.2 123zM356.74 167.79001C 336.74 177.12001 316.74 186.46 296.74 195.79001C 295.06998 196.57 295.13998 199.31001 296.74 200.11002C 316.06998 209.78001 335.40997 219.44002 354.74 229.11002C 357.61 230.54001 360.15 226.23001 357.25998 224.79001C 337.93 215.12001 318.58997 205.46 299.25998 195.79001L299.25998 195.79001L299.25998 200.11002C 319.25998 190.78001 339.25998 181.44002 359.25998 172.11002C 362.18 170.75002 359.63998 166.44002 356.74 167.79001z" stroke="none" fill="#808080" fill-rule="nonzero" />
    <path d="M138.18 223.14C 149.51999 276.88 192.59 319.49 246.5 330.18C 255.54 331.97 264.78 332.97998 274 333C 280.43 333.01 280.44 323.01 274 323C 223.92 322.94 177.65 293.51 156.76001 247.89C 152.75002 239.14 149.8 229.89 147.82 220.48C 146.49 214.19 136.85 216.84999 138.18001 223.14L138.18001 223.14L138.18 223.14z" stroke="none" fill="#808080" fill-rule="nonzero" />
</g>
</svg>